<svg width="156" height="66" viewBox="0 0 156 66" fill="none" xmlns="http://www.w3.org/2000/svg">
<circle cx="129.716" cy="2.07527" r="0.810623" fill="#C7CFCE" stroke="#C7CFCE" stroke-width="1.5498"/>
<circle cx="150.5" cy="16.2244" r="0.810623" fill="#C7CFCE" stroke="#C7CFCE" stroke-width="0.254309"/>
<circle cx="154.5" cy="41.2244" r="0.810623" fill="#C7CFCE" stroke="#C7CFCE" stroke-width="0.254309"/>
<circle cx="37.9886" cy="65.0623" r="0.810623" fill="#C7CFCE" stroke="#C7CFCE" stroke-width="0.254309"/>
<circle cx="1.50028" cy="15.6674" r="0.810623" fill="#C7CFCE" stroke="#C7CFCE" stroke-width="0.254309"/>
<circle cx="15.2405" cy="51.5979" r="0.810623" fill="#C7CFCE" stroke="#C7CFCE" stroke-width="0.254309"/>
<circle cx="131.408" cy="39.2248" r="0.810623" fill="#C7CFCE" stroke="#C7CFCE" stroke-width="0.254309"/>
<circle cx="57.5003" cy="46.4278" r="0.810623" fill="#C7CFCE" stroke="#C7CFCE" stroke-width="0.254309"/>
<circle cx="94.4085" cy="2.2244" r="0.810623" fill="#C7CFCE" stroke="#C7CFCE" stroke-width="0.254309"/>
<circle cx="28.4085" cy="2.2244" r="0.810623" fill="#C7CFCE" stroke="#C7CFCE" stroke-width="0.254309"/>
<circle cx="2.80037" cy="62.1549" r="0.810623" fill="#C7CFCE" stroke="#C7CFCE" stroke-width="1.5498"/>
<circle cx="14.4105" cy="29.3211" r="1.99438" fill="#C7CFCE" stroke="#C7CFCE" stroke-width="1.62125"/>
<circle cx="122.645" cy="57.4476" r="1.77561" fill="#C7CFCE" stroke="#C7CFCE" stroke-width="1.62125"/>
<circle cx="116.149" cy="35.0762" r="1.77561" fill="#C7CFCE" stroke="#C7CFCE" stroke-width="1.62125"/>
<path d="M64.7396 38.6539C63.2254 38.2827 62.2445 37.6436 62.004 36.7461C61.2747 34.0246 67.6292 29.9573 76.1969 27.6616C84.7647 25.3659 92.3015 25.711 93.0307 28.4325C93.7599 31.154 87.4054 35.2213 78.8377 37.517C76.0121 38.2741 73.2985 38.744 70.9044 38.9362" stroke="#C7CFCE" stroke-width="2.5" stroke-linecap="round" stroke-linejoin="round"/>
<path d="M74.3107 34.3786C70.8432 35.3077 68.264 36.9258 68.5499 37.9928C68.6441 38.3446 68.8087 38.9587 70.8699 38.924" stroke="#C7CFCE" stroke-width="2.5" stroke-linecap="round" stroke-linejoin="round"/>
<path d="M51.3095 45.4592C48.1977 44.6941 46.1813 43.3781 45.6863 41.5308C44.1855 35.9294 57.2399 27.5646 74.8443 22.8475C92.4485 18.1305 107.937 18.8473 109.437 24.4487C110.938 30.0501 97.8837 38.4149 80.2795 43.132C74.4737 44.6876 68.8979 45.6523 63.9782 46.0457" stroke="#C7CFCE" stroke-width="2.5" stroke-linecap="round" stroke-linejoin="round"/>
<path d="M123.906 29.2669C127.606 25.7179 129.346 22.2818 128.554 19.3266C126.153 10.3659 101.377 9.21909 73.2148 16.7651C45.0528 24.3111 24.1689 37.6926 26.57 46.6533C28.971 55.6139 53.7476 56.7607 81.9096 49.2148C91.1974 46.7261 99.6937 43.6026 106.824 40.2125" stroke="#C7CFCE" stroke-width="2.5" stroke-linecap="round" stroke-linejoin="round"/>
</svg>