<svg width="16" height="16" viewBox="0 0 16 16" fill="none" xmlns="http://www.w3.org/2000/svg">
<path d="M9.24867 9.24933L11.9393 8.28667C11.9972 8.26825 12.0485 8.23366 12.0873 8.187C12.1261 8.14034 12.1508 8.08355 12.1583 8.02334C12.1659 7.96313 12.1561 7.90201 12.13 7.84719C12.104 7.79238 12.0628 7.74616 12.0113 7.714L9.55067 6.35467L9.63 3.46267C9.63113 3.40349 9.6149 3.34529 9.58329 3.29525C9.55169 3.24521 9.50611 3.20554 9.4522 3.18113C9.39828 3.15673 9.33839 3.14867 9.27994 3.15794C9.22149 3.16722 9.16704 3.19343 9.12333 3.23333L7.14933 4.86667L4.43733 4.02933C4.38086 4.01426 4.32141 4.01431 4.26496 4.02947C4.2085 4.04463 4.15703 4.07436 4.1157 4.1157C4.07436 4.15703 4.04463 4.2085 4.02947 4.26496C4.01431 4.32141 4.01426 4.38086 4.02933 4.43733L4.86667 7.14933L3.23267 9.124C3.19277 9.16771 3.16656 9.22216 3.15728 9.28061C3.148 9.33906 3.15606 9.39895 3.18047 9.45286C3.20487 9.50678 3.24455 9.55236 3.29458 9.58396C3.34462 9.61556 3.40283 9.6318 3.462 9.63067L6.354 9.55133L7.714 12.012C7.74605 12.0635 7.7922 12.1048 7.84698 12.1308C7.90176 12.1569 7.96286 12.1668 8.02306 12.1592C8.08326 12.1516 8.14002 12.1269 8.18662 12.0881C8.23322 12.0492 8.26771 11.9978 8.286 11.94L9.24867 9.24933ZM9.24867 9.24933L15.5 15.5M12 1.5H14M13 0.5V2.5M1.5 13.5H3.5M2.5 12.5V14.5M6 2V0.5M0.5 6.5H2" stroke="currentColor" stroke-linecap="round" stroke-linejoin="round"/>
</svg>
